<?xml version="1.0" standalone="no"?>
<!DOCTYPE svg PUBLIC "-//W3C//DTD SVG 20010904//EN"
 "http://www.w3.org/TR/2001/REC-SVG-20010904/DTD/svg10.dtd">
<svg version="1.0" xmlns="http://www.w3.org/2000/svg"
 width="342.000000pt" height="102.000000pt" viewBox="0 0 342.000000 102.000000"
 preserveAspectRatio="xMidYMid meet">

<g transform="translate(0.000000,102.000000) scale(0.100000,-0.100000)"
fill="#000000" stroke="none">
<path d="M2025 977 c-86 -17 -185 -49 -200 -64 -19 -19 -19 -42 0 -49 8 -3 38
-1 65 6 28 7 54 10 57 7 3 -3 -1 -78 -8 -166 -13 -173 -8 -211 30 -211 34 0
42 26 51 167 5 76 12 161 16 190 l6 52 57 12 c62 14 74 24 60 51 -11 20 -51
22 -134 5z"/>
<path d="M69 964 c-11 -13 -14 -56 -14 -193 0 -97 4 -193 8 -213 9 -44 37 -64
67 -48 19 10 20 17 14 105 l-7 93 67 4 66 3 0 -97 c0 -95 1 -98 24 -104 14 -3
34 -3 46 1 18 6 20 12 14 53 -5 42 7 228 23 355 5 42 3 47 -13 47 -11 0 -29
-7 -41 -15 -22 -15 -26 -28 -38 -128 l-6 -48 -66 3 -65 3 -2 95 -1 95 -31 3
c-20 2 -36 -3 -45 -14z"/>
<path d="M1655 966 c-11 -9 -27 -16 -36 -16 -40 0 -67 -61 -114 -254 -40 -165
-36 -215 17 -216 12 0 21 20 36 83 l19 82 40 3 40 3 7 -51 c10 -74 22 -99 52
-106 37 -9 55 16 43 59 -15 57 -39 260 -39 340 0 42 -4 77 -9 77 -5 0 -15 2
-23 5 -7 3 -22 -1 -33 -9z m-10 -129 c4 -18 5 -52 3 -77 -3 -39 -6 -45 -32
-52 -17 -4 -32 -5 -34 -3 -7 7 40 165 49 165 4 0 11 -15 14 -33z"/>
<path d="M2217 966 c-8 -8 -17 -45 -21 -83 -6 -73 7 -336 19 -366 9 -23 39
-39 59 -31 13 5 16 25 16 110 l0 104 66 0 66 0 -7 -93 c-7 -104 0 -121 52
-115 27 3 28 5 27 53 -2 74 16 313 27 364 12 55 2 69 -39 52 -23 -10 -32 -22
-41 -56 -6 -24 -11 -57 -11 -74 0 -56 -7 -61 -76 -61 l-64 0 1 96 c1 100 -5
113 -43 114 -9 0 -23 -6 -31 -14z"/>
<path d="M885 956 c-51 -22 -105 -170 -105 -290 0 -116 41 -160 159 -172 54
-6 61 -5 85 19 34 34 42 71 22 102 -21 32 -30 31 -56 -6 -39 -54 -97 -60 -119
-13 -37 81 28 312 82 291 11 -4 17 -18 17 -41 0 -53 7 -64 38 -58 35 6 42 18
42 67 0 44 -17 65 -80 97 -40 21 -46 21 -85 4z"/>
<path d="M1170 948 c-17 -43 -39 -193 -44 -310 -6 -116 -6 -118 18 -133 19
-13 29 -14 45 -5 17 9 21 20 21 63 0 55 8 97 19 97 3 0 24 -24 45 -54 22 -30
50 -60 64 -67 25 -14 96 -18 108 -7 3 4 -32 45 -80 92 -47 46 -86 90 -86 98 0
7 27 51 61 98 82 114 93 136 74 144 -36 13 -93 -36 -155 -134 l-22 -35 6 65
c2 36 8 75 12 88 6 20 3 22 -35 22 -34 0 -43 -4 -51 -22z"/>
<path d="M2666 947 c-39 -39 -67 -131 -73 -242 -8 -158 29 -216 136 -214 95 2
103 7 130 79 50 136 22 335 -53 381 -44 27 -111 25 -140 -4z m109 -106 c3 -20
13 -61 22 -93 37 -133 -31 -255 -96 -172 -17 21 -21 41 -21 94 0 90 18 178 43
214 19 27 21 28 34 11 7 -10 15 -35 18 -54z"/>
<path d="M3016 931 c-31 -33 -49 -100 -62 -241 -14 -142 2 -205 49 -198 20 3
22 10 28 104 4 56 10 119 14 140 l8 39 8 -48 c14 -92 50 -189 79 -219 54 -54
105 -26 114 64 12 122 20 351 13 364 -13 23 -47 17 -57 -11 -5 -14 -14 -89
-19 -166 -5 -77 -11 -143 -14 -145 -6 -6 -41 124 -63 231 -16 78 -35 115 -59
115 -6 0 -24 -13 -39 -29z"/>
<path d="M554 942 c-25 -16 -81 -168 -94 -252 -5 -30 -13 -86 -19 -124 -10
-61 -9 -71 6 -88 10 -11 27 -18 42 -16 25 3 26 7 33 77 3 40 10 77 15 81 4 4
27 11 49 15 l42 6 7 -57 c8 -63 45 -114 84 -114 31 0 32 12 6 86 -26 77 -45
194 -45 287 0 34 -4 67 -8 74 -16 25 -93 42 -118 25z m51 -158 c8 -68 4 -77
-32 -89 -19 -5 -23 -2 -23 15 0 28 33 140 42 140 3 0 10 -30 13 -66z"/>
<path d="M1356 367 c-11 -8 -20 -31 -23 -59 -4 -36 -10 -48 -27 -53 l-21 -8
22 -4 c19 -4 22 -12 25 -61 2 -43 7 -58 20 -60 14 -3 15 5 11 57 -6 59 -5 61
23 73 28 11 28 12 6 16 -19 3 -23 9 -20 35 2 22 10 35 26 42 12 5 21 14 19 20
-5 16 -40 17 -61 2z"/>
<path d="M182 338 c-7 -7 -12 -23 -13 -37 0 -15 -8 -46 -18 -70 -16 -41 -18
-42 -24 -20 -4 13 -7 45 -7 71 0 50 -9 63 -38 54 -23 -8 -42 -83 -42 -163 0
-72 24 -68 28 5 2 29 7 52 11 52 4 0 12 -21 17 -47 7 -38 13 -48 29 -48 14 0
23 10 30 33 11 40 21 41 30 3 6 -27 31 -59 39 -50 9 9 -10 223 -19 226 -6 2
-16 -2 -23 -9z"/>
<path d="M717 343 c-2 -5 -7 -20 -11 -35 -3 -16 -13 -28 -21 -28 -8 0 -15 -4
-15 -10 0 -5 6 -10 13 -10 9 0 18 -23 25 -62 10 -56 23 -77 46 -78 5 0 6 15 2
33 -21 102 -20 106 8 117 30 11 26 30 -5 30 -14 0 -19 7 -19 25 0 24 -14 34
-23 18z"/>
<path d="M826 341 c-3 -4 -8 -50 -12 -102 -6 -80 -4 -96 10 -108 9 -7 16 -12
17 -10 0 2 2 25 4 52 4 51 10 67 26 67 5 0 9 -25 9 -55 0 -41 4 -55 14 -55 20
0 32 91 16 120 -9 16 -18 21 -37 17 -24 -4 -25 -3 -18 39 5 35 3 44 -9 44 -8
0 -17 -4 -20 -9z"/>
<path d="M1756 253 c-3 -21 -6 -73 -6 -115 0 -67 3 -79 20 -88 18 -10 20 -8
20 30 0 34 6 46 30 66 35 30 59 102 38 115 -19 12 -46 11 -54 -3 -5 -7 -10 -4
-15 10 -12 33 -26 26 -33 -15z m68 -40 c-4 -16 -13 -35 -20 -43 -12 -12 -14
-11 -14 10 0 20 25 60 37 60 2 0 0 -12 -3 -27z"/>
<path d="M421 266 c-16 -19 0 -141 19 -141 10 0 16 13 18 42 2 31 10 48 28 62
32 25 30 35 -6 27 -17 -3 -29 -2 -26 3 9 14 -22 21 -33 7z"/>
<path d="M546 258 c-19 -26 -21 -109 -4 -126 18 -18 46 -14 53 8 8 24 21 26
29 5 3 -8 13 -15 22 -15 11 0 14 5 9 18 -4 9 -10 38 -12 63 -4 37 -10 49 -30
58 -35 16 -50 14 -67 -11z m43 -67 c-13 -45 -29 -54 -29 -17 0 39 19 81 31 69
7 -7 7 -23 -2 -52z"/>
<path d="M2030 261 c-16 -30 -12 -107 6 -125 19 -20 48 -20 64 -1 21 25 24 92
6 120 -20 30 -61 34 -76 6z m54 -27 c9 -23 7 -57 -4 -74 -9 -13 -11 -13 -20 0
-11 17 -13 73 -3 83 11 11 20 8 27 -9z"/>
<path d="M2296 273 c-8 -8 -8 -117 0 -137 3 -9 12 -16 20 -16 10 0 14 13 14
45 0 36 4 47 25 61 14 9 25 21 25 26 0 6 -11 8 -25 6 -14 -3 -25 -2 -25 2 0
11 -27 20 -34 13z"/>
<path d="M2668 242 c-15 -34 -16 -35 -17 -11 -1 22 -17 39 -36 39 -2 0 -9 -15
-16 -32 l-13 -33 -3 33 c-3 20 -10 32 -19 32 -24 0 -16 -144 8 -148 13 -3 20
8 30 45 l13 48 5 -45 c7 -58 34 -68 44 -16 8 40 26 49 26 12 0 -21 25 -55 34
-45 2 2 1 39 -1 82 -5 62 -9 77 -22 77 -9 0 -23 -17 -33 -38z"/>
<path d="M2975 257 c-28 -43 -30 -92 -6 -116 25 -25 66 -28 75 -5 11 27 7 37
-9 24 -8 -7 -22 -10 -30 -6 -22 8 -18 36 5 36 27 0 48 45 33 68 -16 27 -50 26
-68 -1z m43 -24 c-2 -9 -8 -18 -15 -20 -7 -3 -9 3 -6 16 6 25 26 28 21 4z"/>
<path d="M3092 267 c-6 -7 -7 -40 -3 -77 5 -51 10 -66 24 -68 14 -3 17 4 17
42 0 38 4 48 25 62 14 9 25 21 25 26 0 6 -11 8 -25 6 -14 -3 -25 -2 -25 2 0
14 -28 19 -38 7z"/>
<path d="M3206 264 c-11 -27 -7 -42 20 -74 20 -23 24 -34 15 -43 -8 -8 -15 -6
-26 9 -14 19 -14 18 -15 -4 0 -26 20 -37 55 -28 33 8 33 39 0 78 -27 32 -30
43 -15 53 6 3 10 -1 10 -9 0 -9 4 -16 8 -16 17 0 21 13 11 31 -12 23 -55 25
-63 3z"/>
<path d="M269 231 c-9 -31 -9 -47 -1 -66 16 -34 41 -43 58 -20 12 16 14 16 29
1 28 -28 33 -9 15 56 -16 61 -18 63 -53 66 -34 3 -36 1 -48 -37z m61 -14 c0
-13 -7 -32 -15 -43 -13 -18 -14 -17 -15 17 0 20 3 39 7 42 13 14 23 7 23 -16z"/>
<path d="M976 248 c-9 -13 -16 -43 -16 -69 0 -42 3 -47 27 -53 35 -9 53 10 60
63 4 31 1 46 -12 61 -23 26 -40 25 -59 -2z m44 -41 c0 -28 -24 -64 -33 -50 -8
13 12 73 24 73 5 0 9 -10 9 -23z"/>
<path d="M1096 263 c-3 -3 -6 -35 -6 -70 0 -50 3 -63 16 -63 8 0 20 14 26 32
l11 31 16 -33 c22 -47 46 -53 38 -10 -4 18 -7 50 -7 71 0 46 -21 52 -51 17
l-18 -23 -1 22 c0 23 -13 37 -24 26z"/>
<path d="M1440 251 c-15 -29 -12 -87 6 -105 19 -19 48 -21 61 -3 20 24 23 90
6 109 -21 24 -60 23 -73 -1z m54 -35 c7 -30 -2 -58 -18 -53 -18 6 -20 77 -3
77 8 0 18 -11 21 -24z"/>
<path d="M1569 268 c0 -2 -2 -33 -5 -69 -4 -52 -2 -68 9 -72 11 -4 17 6 22 39
5 36 13 49 37 63 31 20 24 37 -11 26 -11 -3 -22 -1 -26 5 -5 9 -24 14 -26 8z"/>
<path d="M1904 207 c1 -35 6 -69 10 -75 13 -21 26 -13 26 17 0 42 17 81 35 81
8 0 15 9 15 20 0 25 -28 26 -46 3 -13 -17 -13 -17 -14 0 0 9 -7 17 -15 17 -11
0 -13 -13 -11 -63z"/>
<path d="M2775 247 c-9 -34 -2 -112 10 -111 6 1 15 11 21 23 16 32 28 39 21
14 -8 -33 13 -40 34 -12 l19 24 0 -27 c0 -23 16 -47 24 -37 2 2 6 32 9 67 6
50 4 62 -8 62 -8 0 -21 -12 -29 -27 -14 -26 -15 -26 -16 -6 0 30 -20 40 -36
19 -11 -16 -13 -16 -16 5 -4 31 -26 35 -33 6z"/>
<path d="M2160 234 c-22 -56 -7 -104 32 -104 10 0 18 -6 18 -14 0 -21 -27 -38
-50 -31 -26 8 -26 -11 0 -25 51 -27 90 27 90 124 0 44 -4 57 -19 66 -34 18
-61 12 -71 -16z m60 -32 c0 -15 -5 -33 -12 -40 -27 -27 -36 -5 -18 42 13 34
30 33 30 -2z"/>
<path d="M2414 225 c-28 -67 -8 -115 36 -87 13 8 21 7 33 -5 23 -24 37 -8 26
30 -5 17 -9 44 -9 58 0 19 -6 28 -22 33 -40 10 -49 7 -64 -29z m47 -28 c-11
-29 -31 -45 -31 -25 0 16 30 61 36 55 3 -2 0 -16 -5 -30z"/>
</g>
</svg>
